<svg id="Layer_1" data-name="Layer 1" xmlns="http://www.w3.org/2000/svg" viewBox="0 0 526.731 67.518">
  <defs>
    <style>
      .cls-1 {
        font-size: 56.347px;
        fill: #231f20;
        font-family: sans-serif;
      }

      .cls-2 {
        letter-spacing: -0.018em;
      }

      .cls-3 {
        fill: #2b3b3b;
      }

      .cls-4 {
        fill: #ed9325;
      }
    </style>
  </defs>
  <title>NEDForum</title>
  <g>
    <text class="cls-1" transform="translate(88.653 50.987) scale(0.95 1.04)">NEDians’ <tspan class="cls-2" x="270.854" y="0">F</tspan><tspan x="305.507" y="0">orum</tspan></text>
    <g>
      <path class="cls-3" d="M86.045,305.8c-2.238-.24-14.812-1.714-19.472-4.3H40.454c-7.957,0-14.407-5.828-14.407-13.021V273.785c0-7.193,6.45-13.021,14.407-13.021h4.781v5.228a12.564,12.564,0,0,0,5.457,10.2c-2.892,3.242-6.407,6.713-8.568,7.127,2.238-.251,14.822-1.724,19.472-4.311H82.945v9.463a12.574,12.574,0,0,1-5.468,10.2C80.369,301.923,83.894,305.394,86.045,305.8Z" transform="translate(-26.047 -238.28)"/>
      <path class="cls-4" d="M102.122,251.3v14.691c0,7.193-6.451,13.021-14.407,13.021H61.6c-4.65,2.587-17.234,4.06-19.472,4.311,2.161-.414,5.676-3.885,8.568-7.127a12.564,12.564,0,0,1-5.457-10.2V251.3c0-7.193,6.45-13.021,14.407-13.021H87.715C95.671,238.28,102.122,244.108,102.122,251.3Z" transform="translate(-26.047 -238.28)"/>
    </g>
  </g>
</svg>
