<svg xmlns="http://www.w3.org/2000/svg" viewBox="0 0 474.38 61.86"><title>Asset 4</title><path d="M111.9,11.11V48.69h-3L86.84,18.19v30.5H83.21V11.11h3L108.32,41.6V11.11Z" fill="#231f20"/><path d="M147.36,45.25v3.44H123.08V11.11h23.54v3.43H126.71V27.91h17.76v3.38H126.71v14Z" fill="#231f20"/><path d="M155.89,11.11h14a18.91,18.91,0,0,1,9.61,2.39A16.65,16.65,0,0,1,186,20.15a20.29,20.29,0,0,1,2.3,9.75,20.22,20.22,0,0,1-2.3,9.74,16.62,16.62,0,0,1-6.48,6.66,19,19,0,0,1-9.61,2.39h-14Zm13.78,34.14a15.46,15.46,0,0,0,7.9-2,13.56,13.56,0,0,0,5.25-5.42,16.6,16.6,0,0,0,1.86-8,16.54,16.54,0,0,0-1.86-8,13.65,13.65,0,0,0-5.25-5.43,15.56,15.56,0,0,0-7.9-2H159.52V45.25Z" fill="#231f20"/><path d="M195.62,13.47a2.77,2.77,0,0,1-.74-1.93,2.69,2.69,0,0,1,.74-1.88,2.34,2.34,0,0,1,1.81-.81,2.41,2.41,0,0,1,1.82.78,2.61,2.61,0,0,1,.73,1.85,2.84,2.84,0,0,1-.73,2,2.44,2.44,0,0,1-3.63,0Zm0,7h3.48V48.69h-3.48Z" fill="#231f20"/><path d="M225.63,23q2.7,2.76,2.7,8.19v17.5H225v-4.4a8.21,8.21,0,0,1-3.45,3.43A11.16,11.16,0,0,1,216.12,49a10,10,0,0,1-6.87-2.26,7.56,7.56,0,0,1-2.55-6A7.5,7.5,0,0,1,209.08,35q2.37-2.21,7.58-2.21h8.19V31A7.64,7.64,0,0,0,223,25.47a7.28,7.28,0,0,0-5.44-1.91,12.76,12.76,0,0,0-4.71.89A11.65,11.65,0,0,0,209,26.89l-1.57-2.84a13.44,13.44,0,0,1,4.7-2.82,17,17,0,0,1,5.79-1C221.25,20.23,223.83,21.16,225.63,23Zm-3.92,21.48a8.8,8.8,0,0,0,3.14-4.27V35.59h-8.1q-6.62,0-6.62,5a4.81,4.81,0,0,0,1.72,3.89A7.32,7.32,0,0,0,216.66,46,8.62,8.62,0,0,0,221.71,44.48Z" fill="#231f20"/><path d="M258.66,23.32q2.86,3.09,2.87,9V48.69h-3.48v-16q0-4.39-2-6.71a7.21,7.21,0,0,0-5.74-2.31,8.41,8.41,0,0,0-6.6,2.71,10.88,10.88,0,0,0-2.42,7.49V48.69h-3.49V20.45h3.34v5.21a10.07,10.07,0,0,1,4-4,11.7,11.7,0,0,1,5.86-1.43A10,10,0,0,1,258.66,23.32Z" fill="#231f20"/><path d="M271.9,48a12.71,12.71,0,0,1-4.48-2.5l1.57-3a12.68,12.68,0,0,0,4.07,2.28,14.87,14.87,0,0,0,5.1.89,9,9,0,0,0,5.22-1.21A3.93,3.93,0,0,0,285.07,41a3.22,3.22,0,0,0-.93-2.44,6,6,0,0,0-2.35-1.34,30.73,30.73,0,0,0-3.78-.89A41.58,41.58,0,0,1,273,35a7.29,7.29,0,0,1-3.26-2.29,6.7,6.7,0,0,1-1.35-4.45,7.21,7.21,0,0,1,2.7-5.8c1.79-1.5,4.29-2.26,7.5-2.26a18,18,0,0,1,5,.73,13,13,0,0,1,4.12,1.91l-1.52,3.06a12.24,12.24,0,0,0-7.6-2.42,8.24,8.24,0,0,0-5,1.29,4,4,0,0,0-1.69,3.38,3.52,3.52,0,0,0,1,2.58,5.7,5.7,0,0,0,2.38,1.42,35.32,35.32,0,0,0,3.92.94,41.65,41.65,0,0,1,5,1.29,7.22,7.22,0,0,1,3.19,2.2,6.44,6.44,0,0,1,1.32,4.29,7,7,0,0,1-2.82,5.88c-1.88,1.45-4.48,2.18-7.82,2.18A18.34,18.34,0,0,1,271.9,48Z" fill="#231f20"/><path d="M297.23,9.42a3,3,0,0,1,.74,2.06,6.18,6.18,0,0,1-.17,1.37c-.12.49-.27,1.05-.47,1.69L295.22,22h-2.35l1.72-7.73a2.5,2.5,0,0,1-1.33-1,3,3,0,0,1-.49-1.75,3,3,0,0,1,.74-2.09,2.4,2.4,0,0,1,1.86-.81A2.36,2.36,0,0,1,297.23,9.42Z" fill="#231f20"/><path d="M322.59,14.54V29.31h17.75v3.43H322.59V48.69H319V11.11H342.5v3.43Z" fill="#231f20"/><path d="M352.21,47.11A13.12,13.12,0,0,1,347.5,42a15.75,15.75,0,0,1-1.71-7.41,15.75,15.75,0,0,1,1.71-7.41,12.9,12.9,0,0,1,4.71-5.1,12.77,12.77,0,0,1,18.12,5.1A15.86,15.86,0,0,1,372,34.57,15.86,15.86,0,0,1,370.33,42a12.9,12.9,0,0,1-4.68,5.13,13.13,13.13,0,0,1-13.44,0Zm11.65-2.9a9.3,9.3,0,0,0,3.41-3.9,13,13,0,0,0,1.22-5.74,13.12,13.12,0,0,0-1.22-5.75,9.33,9.33,0,0,0-3.41-3.89,9.56,9.56,0,0,0-9.86,0,9.44,9.44,0,0,0-3.43,3.89,12.72,12.72,0,0,0-1.25,5.75,12.65,12.65,0,0,0,1.25,5.74,9.41,9.41,0,0,0,3.43,3.9,9.56,9.56,0,0,0,9.86,0Z" fill="#231f20"/><path d="M386.12,21.68a11.63,11.63,0,0,1,6-1.45v3.71l-.83-.05a7.9,7.9,0,0,0-6.38,2.73q-2.3,2.74-2.3,7.68V48.69h-3.48V20.45h3.33V26A9,9,0,0,1,386.12,21.68Z" fill="#231f20"/><path d="M422.05,20.45V48.69h-3.34V43.54a10,10,0,0,1-3.77,4,10.68,10.68,0,0,1-5.5,1.42,10.45,10.45,0,0,1-8-3.09c-1.94-2.06-2.91-5.07-2.91-9V20.45H402v16c0,3,.67,5.23,2,6.76a7.19,7.19,0,0,0,5.74,2.31,8.05,8.05,0,0,0,6.42-2.71q2.35-2.72,2.36-7.54V20.45Z" fill="#231f20"/><path d="M471.61,23.29c1.84,2.05,2.77,5.05,2.77,9V48.69h-3.49v-16q0-4.39-1.93-6.71a6.75,6.75,0,0,0-5.47-2.31,7.87,7.87,0,0,0-6.33,2.71,11.25,11.25,0,0,0-2.3,7.49V48.69h-3.48v-16q0-4.39-1.94-6.71a6.8,6.8,0,0,0-5.52-2.31,7.86,7.86,0,0,0-6.3,2.71c-1.56,1.81-2.33,4.31-2.33,7.49V48.69h-3.48V20.45h3.33V25.6a9.77,9.77,0,0,1,3.83-4,11.18,11.18,0,0,1,5.64-1.4,10.3,10.3,0,0,1,5.61,1.51,9.06,9.06,0,0,1,3.56,4.45,10.52,10.52,0,0,1,4.09-4.37A11.72,11.72,0,0,1,464,20.23,9.78,9.78,0,0,1,471.61,23.29Z" fill="#231f20"/><path d="M55,61.86c-2-.22-13.57-1.57-17.84-3.94H13.2C5.91,57.92,0,52.58,0,46V32.53C0,25.94,5.91,20.6,13.2,20.6h4.38v4.79a11.51,11.51,0,0,0,5,9.35c-2.65,3-5.87,6.15-7.85,6.53,2.05-.23,13.58-1.58,17.84-4H52.13V46a11.52,11.52,0,0,1-5,9.35C49.77,58.31,53,61.49,55,61.86Z" fill="#2b3b3b"/><path d="M69.7,11.93V25.39c0,6.59-5.91,11.93-13.2,11.93H32.57c-4.26,2.37-15.79,3.72-17.84,4,2-.38,5.2-3.56,7.85-6.53a11.51,11.51,0,0,1-5-9.35V11.93C17.58,5.34,23.49,0,30.78,0H56.5C63.79,0,69.7,5.34,69.7,11.93Z" fill="#ed9325"/></svg>