<svg xmlns="http://www.w3.org/2000/svg" viewBox="0 0 407.82 61.86"><title>LOGO DESKTOP</title><path d="M102,48.69,82.93,18.52c-.24-.39-.48-.78-.71-1.18a7.82,7.82,0,0,1-.56-1.18h-.12c0,.31.06.75.08,1.31s0,1.26,0,2.09V48.69H78.47V11.1H82l18.75,29.8c.29.48.55.92.78,1.33s.45.79.64,1.14h.12c-.07-.58-.11-1.22-.15-1.94s0-1.51,0-2.39V11.1h3.2V48.69Z" fill="#231f20"/><path d="M114.2,48.69V11.1h16.74v3.2H117.39V28.09h12.55v3.14H117.39V45.52h14.32v3.17Z" fill="#231f20"/><path d="M138.87,48.69V11.1h9q8.81,0,13.31,4.63t4.5,13.67a23.82,23.82,0,0,1-1.25,7.91,17.16,17.16,0,0,1-3.63,6.1,15.94,15.94,0,0,1-5.75,3.9,20,20,0,0,1-7.61,1.38Zm3.18-34.39V45.52h5.27a17.94,17.94,0,0,0,6.34-1.05,12.65,12.65,0,0,0,4.73-3.08,13.44,13.44,0,0,0,3-5,21.22,21.22,0,0,0,1-6.87q0-15.21-14.68-15.2Z" fill="#231f20"/><path d="M173.59,15.06a2,2,0,0,1-1.53-.69,2.41,2.41,0,0,1-.65-1.73,2.35,2.35,0,0,1,.65-1.69,2.08,2.08,0,0,1,1.53-.67,2.11,2.11,0,0,1,.86.18,1.94,1.94,0,0,1,.71.48,2.41,2.41,0,0,1,.48.75,2.47,2.47,0,0,1,.18,1,2.71,2.71,0,0,1-.17.95,2.18,2.18,0,0,1-.48.77,2.29,2.29,0,0,1-.7.51A2,2,0,0,1,173.59,15.06Zm-1.51,33.63V21.85h3.07V48.69Z" fill="#231f20"/><path d="M197.18,48.69V43.92h-.1a9.61,9.61,0,0,1-3.27,4,8.06,8.06,0,0,1-4.68,1.42,8.72,8.72,0,0,1-3.19-.55,6.83,6.83,0,0,1-2.42-1.56A6.91,6.91,0,0,1,182,44.78a8.86,8.86,0,0,1-.53-3.11,8,8,0,0,1,2.06-5.81A10.6,10.6,0,0,1,189.73,33l7.45-1.18q0-7.74-5.49-7.73a11.45,11.45,0,0,0-7.95,3.43V23.89a11,11,0,0,1,1.74-1.09,15.51,15.51,0,0,1,4.26-1.39,13.14,13.14,0,0,1,2.22-.19,7.62,7.62,0,0,1,6.19,2.51c1.4,1.68,2.09,4.18,2.09,7.5V48.69Zm-6.32-13a18.61,18.61,0,0,0-2.83.66,5.54,5.54,0,0,0-1.94,1.06A4,4,0,0,0,185,39a7.12,7.12,0,0,0-.36,2.43,5.62,5.62,0,0,0,.34,2,4.48,4.48,0,0,0,2.61,2.62,6,6,0,0,0,2.15.37,6.54,6.54,0,0,0,3-.69,7.15,7.15,0,0,0,2.36-1.88A9.2,9.2,0,0,0,196.62,41a11.48,11.48,0,0,0,.56-3.64V34.69Z" fill="#231f20"/><path d="M224.17,48.69V33.22q0-9.09-6-9.09a6.49,6.49,0,0,0-3,.69,7.27,7.27,0,0,0-2.36,1.93,9.14,9.14,0,0,0-1.55,2.92,11.41,11.41,0,0,0-.56,3.66V48.69h-3.07V21.85h3.07v4.66h.09q2.73-5.3,8.21-5.29a7.14,7.14,0,0,1,6.13,2.85q2.12,2.87,2.11,8.26V48.69Z" fill="#231f20"/><path d="M233.22,43.87a9.56,9.56,0,0,0,1.51,1.07,11.16,11.16,0,0,0,1.67.81,10.45,10.45,0,0,0,1.74.52,9,9,0,0,0,1.66.17q5.46,0,5.46-4.49a3.79,3.79,0,0,0-.38-1.77,4.49,4.49,0,0,0-1.1-1.36,9.17,9.17,0,0,0-1.72-1.14c-.67-.35-1.43-.72-2.28-1.1A21.67,21.67,0,0,1,236.86,35a8.61,8.61,0,0,1-2-1.71,6.51,6.51,0,0,1-1.18-2.05,7.87,7.87,0,0,1-.38-2.53,6.91,6.91,0,0,1,.71-3.17,7.15,7.15,0,0,1,1.9-2.36,8.47,8.47,0,0,1,2.77-1.48,10.54,10.54,0,0,1,3.29-.51,11.26,11.26,0,0,1,5.56,1.31v3.54a10.09,10.09,0,0,0-5.94-1.94,6.62,6.62,0,0,0-2.1.31,4.87,4.87,0,0,0-1.62.89,4.05,4.05,0,0,0-1.41,3.15,4.88,4.88,0,0,0,.29,1.74,3.72,3.72,0,0,0,.9,1.35,7.44,7.44,0,0,0,1.58,1.16c.64.36,1.43.76,2.36,1.18a27,27,0,0,1,3.06,1.56,9.57,9.57,0,0,1,2.13,1.67,6,6,0,0,1,1.25,2,7.55,7.55,0,0,1,.41,2.58,7.3,7.3,0,0,1-.69,3.23,6.66,6.66,0,0,1-1.89,2.38A8.33,8.33,0,0,1,243,48.82a12.07,12.07,0,0,1-3.54.5,11,11,0,0,1-6.25-1.7Z" fill="#231f20"/><path d="M255.54,22.53h-2.3l2.82-11.75h3Z" fill="#231f20"/><path d="M282.5,14.3V28.45h12.55v3.17H282.5V48.69h-3.18V11.1h16.74v3.2Z" fill="#231f20"/><path d="M312.22,49.32a11.54,11.54,0,0,1-4.9-1,10.53,10.53,0,0,1-3.7-2.81,12.72,12.72,0,0,1-2.34-4.37,18.16,18.16,0,0,1-.82-5.64,19.53,19.53,0,0,1,.86-6A13,13,0,0,1,303.78,25a10.31,10.31,0,0,1,3.84-2.82,12.54,12.54,0,0,1,5-1,11.7,11.7,0,0,1,4.79,1,9.83,9.83,0,0,1,3.62,2.77,12.73,12.73,0,0,1,2.27,4.4,20.16,20.16,0,0,1,.79,5.9A18.75,18.75,0,0,1,323.3,41a13.45,13.45,0,0,1-2.36,4.44,10.59,10.59,0,0,1-3.74,2.89A11.73,11.73,0,0,1,312.22,49.32Zm.24-25.19a8.44,8.44,0,0,0-3.64.76A7.55,7.55,0,0,0,306,27.1a10.31,10.31,0,0,0-1.78,3.57,16.67,16.67,0,0,0-.63,4.78,15.24,15.24,0,0,0,.63,4.54A10.45,10.45,0,0,0,306,43.45a7.58,7.58,0,0,0,2.76,2.21,9,9,0,0,0,7.28,0,7.15,7.15,0,0,0,2.68-2.18A9.9,9.9,0,0,0,320.4,40a18.24,18.24,0,0,0,.56-4.72c0-3.61-.73-6.38-2.2-8.29A7.46,7.46,0,0,0,312.46,24.13Z" fill="#231f20"/><path d="M342.47,25.28a4.29,4.29,0,0,0-2.78-.86,4.42,4.42,0,0,0-2.16.51,5.63,5.63,0,0,0-1.64,1.37,8.63,8.63,0,0,0-1.2,2,15.69,15.69,0,0,0-.79,2.37,19.06,19.06,0,0,0-.43,2.49c-.08.84-.13,1.64-.13,2.39V48.69h-3V21.85h3v5.74h.1A12.68,12.68,0,0,1,334.53,25a8,8,0,0,1,1.52-2,6.07,6.07,0,0,1,1.88-1.22,5.55,5.55,0,0,1,2.14-.42,7.66,7.66,0,0,1,1.33.1,4.78,4.78,0,0,1,1.07.32Z" fill="#231f20"/><path d="M363,48.69V44.13h-.09q-2.49,5.19-7.74,5.19-8.73,0-8.74-11.69V21.85h3.07V37q0,4.81,1.57,7.13a5.39,5.39,0,0,0,4.8,2.31,6.3,6.3,0,0,0,2.88-.67A6.77,6.77,0,0,0,361,43.88,8.92,8.92,0,0,0,362.44,41a12.84,12.84,0,0,0,.52-3.78V21.85H366V48.69Z" fill="#231f20"/><path d="M404.75,48.69V32.91a21.4,21.4,0,0,0-.33-4.08,7.6,7.6,0,0,0-1.05-2.71,4.09,4.09,0,0,0-1.79-1.52,6.42,6.42,0,0,0-2.6-.47,5,5,0,0,0-2.54.69,6.75,6.75,0,0,0-2.09,1.91,9.93,9.93,0,0,0-1.42,2.88,12,12,0,0,0-.51,3.56V48.69h-3.07V32.57q0-8.44-5.91-8.44a5,5,0,0,0-2.54.67,6.58,6.58,0,0,0-2,1.87,9.16,9.16,0,0,0-1.36,2.9A13.21,13.21,0,0,0,377,33.3V48.69h-3.07V21.85H377V26.2h.09q2.6-5,7.55-5a6.85,6.85,0,0,1,2.44.43,7.18,7.18,0,0,1,2.06,1.2,8.06,8.06,0,0,1,1.57,1.85,8.67,8.67,0,0,1,1,2.36,10.62,10.62,0,0,1,3.36-4.35,7.87,7.87,0,0,1,4.69-1.49q8.07,0,8.07,10.9V48.69Z" fill="#231f20"/><path d="M55,61.86c-2-.22-13.57-1.57-17.84-3.94H13.2C5.91,57.92,0,52.58,0,46V32.53C0,25.94,5.91,20.6,13.2,20.6h4.38v4.79a11.51,11.51,0,0,0,5,9.35c-2.65,3-5.87,6.15-7.85,6.53,2.05-.23,13.58-1.58,17.84-4H52.13V46a11.52,11.52,0,0,1-5,9.35C49.77,58.31,53,61.49,55,61.86Z" fill="#2b3b3b"/><path d="M69.7,11.93V25.39c0,6.59-5.91,11.93-13.2,11.93H32.57c-4.26,2.37-15.79,3.72-17.84,4,2-.38,5.2-3.56,7.85-6.53a11.51,11.51,0,0,1-5-9.35V11.93C17.58,5.34,23.49,0,30.78,0H56.5C63.79,0,69.7,5.34,69.7,11.93Z" fill="#ed9325"/></svg>