<svg id="Layer_1" data-name="Layer 1" xmlns="http://www.w3.org/2000/svg" viewBox="0 0 164.56 146.05"><defs><style>.cls-1{fill:#2b3b3b;}.cls-2{fill:#ed9325;}</style></defs><title>LOGO MOBILE</title><path class="cls-1" d="M328.58,294.38c-4.84-.52-32-3.71-42.12-9.3H230c-17.21,0-31.16-12.61-31.16-28.17V225.14C198.8,209.58,212.75,197,230,197h10.35v11.31a27.16,27.16,0,0,0,11.8,22.07c-6.26,7-13.86,14.52-18.53,15.42,4.84-.54,32.06-3.73,42.12-9.33h46.17v20.47c0,8.95-4.62,16.93-11.82,22.08C316.3,286,323.93,293.51,328.58,294.38Z" transform="translate(-198.8 -148.34)"/><path class="cls-2" d="M363.36,176.5v31.78c0,15.56-14,28.16-31.17,28.16H275.7c-10.06,5.6-37.28,8.79-42.12,9.33,4.67-.9,12.27-8.4,18.53-15.42a27.16,27.16,0,0,1-11.8-22.07V176.5c0-15.56,13.95-28.16,31.16-28.16h60.72C349.4,148.34,363.36,160.94,363.36,176.5Z" transform="translate(-198.8 -148.34)"/></svg>